%TF.GenerationSoftware,KiCad,Pcbnew,10.0.3*%
%TF.CreationDate,2026-06-20T21:40:20+02:00*%
%TF.ProjectId,basic-weapon-tester,62617369-632d-4776-9561-706f6e2d7465,rev?*%
%TF.SameCoordinates,Original*%
%TF.FileFunction,Legend,Top*%
%TF.FilePolarity,Positive*%
%FSLAX46Y46*%
G04 Gerber Fmt 4.6, Leading zero omitted, Abs format (unit mm)*
G04 Created by KiCad (PCBNEW 10.0.3) date 2026-06-20 21:40:20*
%MOMM*%
%LPD*%
G01*
G04 APERTURE LIST*
%ADD10C,0.100000*%
%ADD11C,0.200000*%
%ADD12C,0.150000*%
%ADD13C,0.120000*%
G04 APERTURE END LIST*
D10*
X137463884Y-68071466D02*
X138225789Y-68071466D01*
X137844836Y-68452419D02*
X137844836Y-67690514D01*
X159053884Y-68071466D02*
X159815789Y-68071466D01*
X159434836Y-68452419D02*
X159434836Y-67690514D01*
D11*
X141226816Y-64450552D02*
X141607768Y-64450552D01*
X141369673Y-65117219D02*
X141369673Y-64260076D01*
X141369673Y-64260076D02*
X141417292Y-64164838D01*
X141417292Y-64164838D02*
X141512530Y-64117219D01*
X141512530Y-64117219D02*
X141607768Y-64117219D01*
X142322054Y-65069600D02*
X142226816Y-65117219D01*
X142226816Y-65117219D02*
X142036340Y-65117219D01*
X142036340Y-65117219D02*
X141941102Y-65069600D01*
X141941102Y-65069600D02*
X141893483Y-64974361D01*
X141893483Y-64974361D02*
X141893483Y-64593409D01*
X141893483Y-64593409D02*
X141941102Y-64498171D01*
X141941102Y-64498171D02*
X142036340Y-64450552D01*
X142036340Y-64450552D02*
X142226816Y-64450552D01*
X142226816Y-64450552D02*
X142322054Y-64498171D01*
X142322054Y-64498171D02*
X142369673Y-64593409D01*
X142369673Y-64593409D02*
X142369673Y-64688647D01*
X142369673Y-64688647D02*
X141893483Y-64783885D01*
X142798245Y-64450552D02*
X142798245Y-65117219D01*
X142798245Y-64545790D02*
X142845864Y-64498171D01*
X142845864Y-64498171D02*
X142941102Y-64450552D01*
X142941102Y-64450552D02*
X143083959Y-64450552D01*
X143083959Y-64450552D02*
X143179197Y-64498171D01*
X143179197Y-64498171D02*
X143226816Y-64593409D01*
X143226816Y-64593409D02*
X143226816Y-65117219D01*
X144131578Y-65069600D02*
X144036340Y-65117219D01*
X144036340Y-65117219D02*
X143845864Y-65117219D01*
X143845864Y-65117219D02*
X143750626Y-65069600D01*
X143750626Y-65069600D02*
X143703007Y-65021980D01*
X143703007Y-65021980D02*
X143655388Y-64926742D01*
X143655388Y-64926742D02*
X143655388Y-64641028D01*
X143655388Y-64641028D02*
X143703007Y-64545790D01*
X143703007Y-64545790D02*
X143750626Y-64498171D01*
X143750626Y-64498171D02*
X143845864Y-64450552D01*
X143845864Y-64450552D02*
X144036340Y-64450552D01*
X144036340Y-64450552D02*
X144131578Y-64498171D01*
X144560150Y-65117219D02*
X144560150Y-64450552D01*
X144560150Y-64117219D02*
X144512531Y-64164838D01*
X144512531Y-64164838D02*
X144560150Y-64212457D01*
X144560150Y-64212457D02*
X144607769Y-64164838D01*
X144607769Y-64164838D02*
X144560150Y-64117219D01*
X144560150Y-64117219D02*
X144560150Y-64212457D01*
X145036340Y-64450552D02*
X145036340Y-65117219D01*
X145036340Y-64545790D02*
X145083959Y-64498171D01*
X145083959Y-64498171D02*
X145179197Y-64450552D01*
X145179197Y-64450552D02*
X145322054Y-64450552D01*
X145322054Y-64450552D02*
X145417292Y-64498171D01*
X145417292Y-64498171D02*
X145464911Y-64593409D01*
X145464911Y-64593409D02*
X145464911Y-65117219D01*
X146369673Y-64450552D02*
X146369673Y-65260076D01*
X146369673Y-65260076D02*
X146322054Y-65355314D01*
X146322054Y-65355314D02*
X146274435Y-65402933D01*
X146274435Y-65402933D02*
X146179197Y-65450552D01*
X146179197Y-65450552D02*
X146036340Y-65450552D01*
X146036340Y-65450552D02*
X145941102Y-65402933D01*
X146369673Y-65069600D02*
X146274435Y-65117219D01*
X146274435Y-65117219D02*
X146083959Y-65117219D01*
X146083959Y-65117219D02*
X145988721Y-65069600D01*
X145988721Y-65069600D02*
X145941102Y-65021980D01*
X145941102Y-65021980D02*
X145893483Y-64926742D01*
X145893483Y-64926742D02*
X145893483Y-64641028D01*
X145893483Y-64641028D02*
X145941102Y-64545790D01*
X145941102Y-64545790D02*
X145988721Y-64498171D01*
X145988721Y-64498171D02*
X146083959Y-64450552D01*
X146083959Y-64450552D02*
X146274435Y-64450552D01*
X146274435Y-64450552D02*
X146369673Y-64498171D01*
X147274435Y-65117219D02*
X147274435Y-64117219D01*
X147274435Y-65069600D02*
X147179197Y-65117219D01*
X147179197Y-65117219D02*
X146988721Y-65117219D01*
X146988721Y-65117219D02*
X146893483Y-65069600D01*
X146893483Y-65069600D02*
X146845864Y-65021980D01*
X146845864Y-65021980D02*
X146798245Y-64926742D01*
X146798245Y-64926742D02*
X146798245Y-64641028D01*
X146798245Y-64641028D02*
X146845864Y-64545790D01*
X146845864Y-64545790D02*
X146893483Y-64498171D01*
X146893483Y-64498171D02*
X146988721Y-64450552D01*
X146988721Y-64450552D02*
X147179197Y-64450552D01*
X147179197Y-64450552D02*
X147274435Y-64498171D01*
X147750626Y-65117219D02*
X147750626Y-64450552D01*
X147750626Y-64117219D02*
X147703007Y-64164838D01*
X147703007Y-64164838D02*
X147750626Y-64212457D01*
X147750626Y-64212457D02*
X147798245Y-64164838D01*
X147798245Y-64164838D02*
X147750626Y-64117219D01*
X147750626Y-64117219D02*
X147750626Y-64212457D01*
X148131578Y-64450552D02*
X148369673Y-65117219D01*
X148607768Y-64450552D02*
X148369673Y-65117219D01*
X148369673Y-65117219D02*
X148274435Y-65355314D01*
X148274435Y-65355314D02*
X148226816Y-65402933D01*
X148226816Y-65402933D02*
X148131578Y-65450552D01*
X148988721Y-65021980D02*
X149036340Y-65069600D01*
X149036340Y-65069600D02*
X148988721Y-65117219D01*
X148988721Y-65117219D02*
X148941102Y-65069600D01*
X148941102Y-65069600D02*
X148988721Y-65021980D01*
X148988721Y-65021980D02*
X148988721Y-65117219D01*
X149893482Y-65069600D02*
X149798244Y-65117219D01*
X149798244Y-65117219D02*
X149607768Y-65117219D01*
X149607768Y-65117219D02*
X149512530Y-65069600D01*
X149512530Y-65069600D02*
X149464911Y-65021980D01*
X149464911Y-65021980D02*
X149417292Y-64926742D01*
X149417292Y-64926742D02*
X149417292Y-64641028D01*
X149417292Y-64641028D02*
X149464911Y-64545790D01*
X149464911Y-64545790D02*
X149512530Y-64498171D01*
X149512530Y-64498171D02*
X149607768Y-64450552D01*
X149607768Y-64450552D02*
X149798244Y-64450552D01*
X149798244Y-64450552D02*
X149893482Y-64498171D01*
X150464911Y-65117219D02*
X150369673Y-65069600D01*
X150369673Y-65069600D02*
X150322054Y-65021980D01*
X150322054Y-65021980D02*
X150274435Y-64926742D01*
X150274435Y-64926742D02*
X150274435Y-64641028D01*
X150274435Y-64641028D02*
X150322054Y-64545790D01*
X150322054Y-64545790D02*
X150369673Y-64498171D01*
X150369673Y-64498171D02*
X150464911Y-64450552D01*
X150464911Y-64450552D02*
X150607768Y-64450552D01*
X150607768Y-64450552D02*
X150703006Y-64498171D01*
X150703006Y-64498171D02*
X150750625Y-64545790D01*
X150750625Y-64545790D02*
X150798244Y-64641028D01*
X150798244Y-64641028D02*
X150798244Y-64926742D01*
X150798244Y-64926742D02*
X150750625Y-65021980D01*
X150750625Y-65021980D02*
X150703006Y-65069600D01*
X150703006Y-65069600D02*
X150607768Y-65117219D01*
X150607768Y-65117219D02*
X150464911Y-65117219D01*
X151226816Y-65117219D02*
X151226816Y-64450552D01*
X151226816Y-64545790D02*
X151274435Y-64498171D01*
X151274435Y-64498171D02*
X151369673Y-64450552D01*
X151369673Y-64450552D02*
X151512530Y-64450552D01*
X151512530Y-64450552D02*
X151607768Y-64498171D01*
X151607768Y-64498171D02*
X151655387Y-64593409D01*
X151655387Y-64593409D02*
X151655387Y-65117219D01*
X151655387Y-64593409D02*
X151703006Y-64498171D01*
X151703006Y-64498171D02*
X151798244Y-64450552D01*
X151798244Y-64450552D02*
X151941101Y-64450552D01*
X151941101Y-64450552D02*
X152036340Y-64498171D01*
X152036340Y-64498171D02*
X152083959Y-64593409D01*
X152083959Y-64593409D02*
X152083959Y-65117219D01*
X152560149Y-64736266D02*
X153322054Y-64736266D01*
X153798244Y-65117219D02*
X153798244Y-64117219D01*
X153798244Y-64498171D02*
X153893482Y-64450552D01*
X153893482Y-64450552D02*
X154083958Y-64450552D01*
X154083958Y-64450552D02*
X154179196Y-64498171D01*
X154179196Y-64498171D02*
X154226815Y-64545790D01*
X154226815Y-64545790D02*
X154274434Y-64641028D01*
X154274434Y-64641028D02*
X154274434Y-64926742D01*
X154274434Y-64926742D02*
X154226815Y-65021980D01*
X154226815Y-65021980D02*
X154179196Y-65069600D01*
X154179196Y-65069600D02*
X154083958Y-65117219D01*
X154083958Y-65117219D02*
X153893482Y-65117219D01*
X153893482Y-65117219D02*
X153798244Y-65069600D01*
X154560149Y-64450552D02*
X154941101Y-64450552D01*
X154703006Y-64117219D02*
X154703006Y-64974361D01*
X154703006Y-64974361D02*
X154750625Y-65069600D01*
X154750625Y-65069600D02*
X154845863Y-65117219D01*
X154845863Y-65117219D02*
X154941101Y-65117219D01*
X155274435Y-64736266D02*
X156036340Y-64736266D01*
X156703006Y-64117219D02*
X156798244Y-64117219D01*
X156798244Y-64117219D02*
X156893482Y-64164838D01*
X156893482Y-64164838D02*
X156941101Y-64212457D01*
X156941101Y-64212457D02*
X156988720Y-64307695D01*
X156988720Y-64307695D02*
X157036339Y-64498171D01*
X157036339Y-64498171D02*
X157036339Y-64736266D01*
X157036339Y-64736266D02*
X156988720Y-64926742D01*
X156988720Y-64926742D02*
X156941101Y-65021980D01*
X156941101Y-65021980D02*
X156893482Y-65069600D01*
X156893482Y-65069600D02*
X156798244Y-65117219D01*
X156798244Y-65117219D02*
X156703006Y-65117219D01*
X156703006Y-65117219D02*
X156607768Y-65069600D01*
X156607768Y-65069600D02*
X156560149Y-65021980D01*
X156560149Y-65021980D02*
X156512530Y-64926742D01*
X156512530Y-64926742D02*
X156464911Y-64736266D01*
X156464911Y-64736266D02*
X156464911Y-64498171D01*
X156464911Y-64498171D02*
X156512530Y-64307695D01*
X156512530Y-64307695D02*
X156560149Y-64212457D01*
X156560149Y-64212457D02*
X156607768Y-64164838D01*
X156607768Y-64164838D02*
X156703006Y-64117219D01*
X157988720Y-65117219D02*
X157417292Y-65117219D01*
X157703006Y-65117219D02*
X157703006Y-64117219D01*
X157703006Y-64117219D02*
X157607768Y-64260076D01*
X157607768Y-64260076D02*
X157512530Y-64355314D01*
X157512530Y-64355314D02*
X157417292Y-64402933D01*
D12*
X131167618Y-70724819D02*
X130691428Y-70724819D01*
X130691428Y-70724819D02*
X130691428Y-69724819D01*
X131500952Y-70201009D02*
X131834285Y-70201009D01*
X131977142Y-70724819D02*
X131500952Y-70724819D01*
X131500952Y-70724819D02*
X131500952Y-69724819D01*
X131500952Y-69724819D02*
X131977142Y-69724819D01*
X132405714Y-70724819D02*
X132405714Y-69724819D01*
X132405714Y-69724819D02*
X132643809Y-69724819D01*
X132643809Y-69724819D02*
X132786666Y-69772438D01*
X132786666Y-69772438D02*
X132881904Y-69867676D01*
X132881904Y-69867676D02*
X132929523Y-69962914D01*
X132929523Y-69962914D02*
X132977142Y-70153390D01*
X132977142Y-70153390D02*
X132977142Y-70296247D01*
X132977142Y-70296247D02*
X132929523Y-70486723D01*
X132929523Y-70486723D02*
X132881904Y-70581961D01*
X132881904Y-70581961D02*
X132786666Y-70677200D01*
X132786666Y-70677200D02*
X132643809Y-70724819D01*
X132643809Y-70724819D02*
X132405714Y-70724819D01*
X134691428Y-69772438D02*
X134596190Y-69724819D01*
X134596190Y-69724819D02*
X134453333Y-69724819D01*
X134453333Y-69724819D02*
X134310476Y-69772438D01*
X134310476Y-69772438D02*
X134215238Y-69867676D01*
X134215238Y-69867676D02*
X134167619Y-69962914D01*
X134167619Y-69962914D02*
X134120000Y-70153390D01*
X134120000Y-70153390D02*
X134120000Y-70296247D01*
X134120000Y-70296247D02*
X134167619Y-70486723D01*
X134167619Y-70486723D02*
X134215238Y-70581961D01*
X134215238Y-70581961D02*
X134310476Y-70677200D01*
X134310476Y-70677200D02*
X134453333Y-70724819D01*
X134453333Y-70724819D02*
X134548571Y-70724819D01*
X134548571Y-70724819D02*
X134691428Y-70677200D01*
X134691428Y-70677200D02*
X134739047Y-70629580D01*
X134739047Y-70629580D02*
X134739047Y-70296247D01*
X134739047Y-70296247D02*
X134548571Y-70296247D01*
X135739047Y-70724819D02*
X135405714Y-70248628D01*
X135167619Y-70724819D02*
X135167619Y-69724819D01*
X135167619Y-69724819D02*
X135548571Y-69724819D01*
X135548571Y-69724819D02*
X135643809Y-69772438D01*
X135643809Y-69772438D02*
X135691428Y-69820057D01*
X135691428Y-69820057D02*
X135739047Y-69915295D01*
X135739047Y-69915295D02*
X135739047Y-70058152D01*
X135739047Y-70058152D02*
X135691428Y-70153390D01*
X135691428Y-70153390D02*
X135643809Y-70201009D01*
X135643809Y-70201009D02*
X135548571Y-70248628D01*
X135548571Y-70248628D02*
X135167619Y-70248628D01*
X136167619Y-70201009D02*
X136500952Y-70201009D01*
X136643809Y-70724819D02*
X136167619Y-70724819D01*
X136167619Y-70724819D02*
X136167619Y-69724819D01*
X136167619Y-69724819D02*
X136643809Y-69724819D01*
X137072381Y-70201009D02*
X137405714Y-70201009D01*
X137548571Y-70724819D02*
X137072381Y-70724819D01*
X137072381Y-70724819D02*
X137072381Y-69724819D01*
X137072381Y-69724819D02*
X137548571Y-69724819D01*
X137977143Y-70724819D02*
X137977143Y-69724819D01*
X137977143Y-69724819D02*
X138548571Y-70724819D01*
X138548571Y-70724819D02*
X138548571Y-69724819D01*
X1413095Y220180D02*
X1413095Y1220180D01*
X1413095Y743990D02*
X1984523Y743990D01*
X1984523Y220180D02*
X1984523Y1220180D01*
X2365476Y1220180D02*
X2984523Y1220180D01*
X2984523Y1220180D02*
X2651190Y839228D01*
X2651190Y839228D02*
X2794047Y839228D01*
X2794047Y839228D02*
X2889285Y791609D01*
X2889285Y791609D02*
X2936904Y743990D01*
X2936904Y743990D02*
X2984523Y648752D01*
X2984523Y648752D02*
X2984523Y410657D01*
X2984523Y410657D02*
X2936904Y315419D01*
X2936904Y315419D02*
X2889285Y267800D01*
X2889285Y267800D02*
X2794047Y220180D01*
X2794047Y220180D02*
X2508333Y220180D01*
X2508333Y220180D02*
X2413095Y267800D01*
X2413095Y267800D02*
X2365476Y315419D01*
X161010057Y-78708094D02*
X160962438Y-78660475D01*
X160962438Y-78660475D02*
X160914819Y-78565237D01*
X160914819Y-78565237D02*
X160914819Y-78327142D01*
X160914819Y-78327142D02*
X160962438Y-78231904D01*
X160962438Y-78231904D02*
X161010057Y-78184285D01*
X161010057Y-78184285D02*
X161105295Y-78136666D01*
X161105295Y-78136666D02*
X161200533Y-78136666D01*
X161200533Y-78136666D02*
X161343390Y-78184285D01*
X161343390Y-78184285D02*
X161914819Y-78755713D01*
X161914819Y-78755713D02*
X161914819Y-78136666D01*
X160914819Y-77517618D02*
X160914819Y-77422380D01*
X160914819Y-77422380D02*
X160962438Y-77327142D01*
X160962438Y-77327142D02*
X161010057Y-77279523D01*
X161010057Y-77279523D02*
X161105295Y-77231904D01*
X161105295Y-77231904D02*
X161295771Y-77184285D01*
X161295771Y-77184285D02*
X161533866Y-77184285D01*
X161533866Y-77184285D02*
X161724342Y-77231904D01*
X161724342Y-77231904D02*
X161819580Y-77279523D01*
X161819580Y-77279523D02*
X161867200Y-77327142D01*
X161867200Y-77327142D02*
X161914819Y-77422380D01*
X161914819Y-77422380D02*
X161914819Y-77517618D01*
X161914819Y-77517618D02*
X161867200Y-77612856D01*
X161867200Y-77612856D02*
X161819580Y-77660475D01*
X161819580Y-77660475D02*
X161724342Y-77708094D01*
X161724342Y-77708094D02*
X161533866Y-77755713D01*
X161533866Y-77755713D02*
X161295771Y-77755713D01*
X161295771Y-77755713D02*
X161105295Y-77708094D01*
X161105295Y-77708094D02*
X161010057Y-77660475D01*
X161010057Y-77660475D02*
X160962438Y-77612856D01*
X160962438Y-77612856D02*
X160914819Y-77517618D01*
X160914819Y-76565237D02*
X160914819Y-76469999D01*
X160914819Y-76469999D02*
X160962438Y-76374761D01*
X160962438Y-76374761D02*
X161010057Y-76327142D01*
X161010057Y-76327142D02*
X161105295Y-76279523D01*
X161105295Y-76279523D02*
X161295771Y-76231904D01*
X161295771Y-76231904D02*
X161533866Y-76231904D01*
X161533866Y-76231904D02*
X161724342Y-76279523D01*
X161724342Y-76279523D02*
X161819580Y-76327142D01*
X161819580Y-76327142D02*
X161867200Y-76374761D01*
X161867200Y-76374761D02*
X161914819Y-76469999D01*
X161914819Y-76469999D02*
X161914819Y-76565237D01*
X161914819Y-76565237D02*
X161867200Y-76660475D01*
X161867200Y-76660475D02*
X161819580Y-76708094D01*
X161819580Y-76708094D02*
X161724342Y-76755713D01*
X161724342Y-76755713D02*
X161533866Y-76803332D01*
X161533866Y-76803332D02*
X161295771Y-76803332D01*
X161295771Y-76803332D02*
X161105295Y-76755713D01*
X161105295Y-76755713D02*
X161010057Y-76708094D01*
X161010057Y-76708094D02*
X160962438Y-76660475D01*
X160962438Y-76660475D02*
X160914819Y-76565237D01*
X130530057Y-78708094D02*
X130482438Y-78660475D01*
X130482438Y-78660475D02*
X130434819Y-78565237D01*
X130434819Y-78565237D02*
X130434819Y-78327142D01*
X130434819Y-78327142D02*
X130482438Y-78231904D01*
X130482438Y-78231904D02*
X130530057Y-78184285D01*
X130530057Y-78184285D02*
X130625295Y-78136666D01*
X130625295Y-78136666D02*
X130720533Y-78136666D01*
X130720533Y-78136666D02*
X130863390Y-78184285D01*
X130863390Y-78184285D02*
X131434819Y-78755713D01*
X131434819Y-78755713D02*
X131434819Y-78136666D01*
X130434819Y-77517618D02*
X130434819Y-77422380D01*
X130434819Y-77422380D02*
X130482438Y-77327142D01*
X130482438Y-77327142D02*
X130530057Y-77279523D01*
X130530057Y-77279523D02*
X130625295Y-77231904D01*
X130625295Y-77231904D02*
X130815771Y-77184285D01*
X130815771Y-77184285D02*
X131053866Y-77184285D01*
X131053866Y-77184285D02*
X131244342Y-77231904D01*
X131244342Y-77231904D02*
X131339580Y-77279523D01*
X131339580Y-77279523D02*
X131387200Y-77327142D01*
X131387200Y-77327142D02*
X131434819Y-77422380D01*
X131434819Y-77422380D02*
X131434819Y-77517618D01*
X131434819Y-77517618D02*
X131387200Y-77612856D01*
X131387200Y-77612856D02*
X131339580Y-77660475D01*
X131339580Y-77660475D02*
X131244342Y-77708094D01*
X131244342Y-77708094D02*
X131053866Y-77755713D01*
X131053866Y-77755713D02*
X130815771Y-77755713D01*
X130815771Y-77755713D02*
X130625295Y-77708094D01*
X130625295Y-77708094D02*
X130530057Y-77660475D01*
X130530057Y-77660475D02*
X130482438Y-77612856D01*
X130482438Y-77612856D02*
X130434819Y-77517618D01*
X130434819Y-76565237D02*
X130434819Y-76469999D01*
X130434819Y-76469999D02*
X130482438Y-76374761D01*
X130482438Y-76374761D02*
X130530057Y-76327142D01*
X130530057Y-76327142D02*
X130625295Y-76279523D01*
X130625295Y-76279523D02*
X130815771Y-76231904D01*
X130815771Y-76231904D02*
X131053866Y-76231904D01*
X131053866Y-76231904D02*
X131244342Y-76279523D01*
X131244342Y-76279523D02*
X131339580Y-76327142D01*
X131339580Y-76327142D02*
X131387200Y-76374761D01*
X131387200Y-76374761D02*
X131434819Y-76469999D01*
X131434819Y-76469999D02*
X131434819Y-76565237D01*
X131434819Y-76565237D02*
X131387200Y-76660475D01*
X131387200Y-76660475D02*
X131339580Y-76708094D01*
X131339580Y-76708094D02*
X131244342Y-76755713D01*
X131244342Y-76755713D02*
X131053866Y-76803332D01*
X131053866Y-76803332D02*
X130815771Y-76803332D01*
X130815771Y-76803332D02*
X130625295Y-76755713D01*
X130625295Y-76755713D02*
X130530057Y-76708094D01*
X130530057Y-76708094D02*
X130482438Y-76660475D01*
X130482438Y-76660475D02*
X130434819Y-76565237D01*
X160023809Y-70704819D02*
X159547619Y-70704819D01*
X159547619Y-70704819D02*
X159547619Y-69704819D01*
X160357143Y-70181009D02*
X160690476Y-70181009D01*
X160833333Y-70704819D02*
X160357143Y-70704819D01*
X160357143Y-70704819D02*
X160357143Y-69704819D01*
X160357143Y-69704819D02*
X160833333Y-69704819D01*
X161261905Y-70704819D02*
X161261905Y-69704819D01*
X161261905Y-69704819D02*
X161500000Y-69704819D01*
X161500000Y-69704819D02*
X161642857Y-69752438D01*
X161642857Y-69752438D02*
X161738095Y-69847676D01*
X161738095Y-69847676D02*
X161785714Y-69942914D01*
X161785714Y-69942914D02*
X161833333Y-70133390D01*
X161833333Y-70133390D02*
X161833333Y-70276247D01*
X161833333Y-70276247D02*
X161785714Y-70466723D01*
X161785714Y-70466723D02*
X161738095Y-70561961D01*
X161738095Y-70561961D02*
X161642857Y-70657200D01*
X161642857Y-70657200D02*
X161500000Y-70704819D01*
X161500000Y-70704819D02*
X161261905Y-70704819D01*
X163595238Y-70704819D02*
X163261905Y-70228628D01*
X163023810Y-70704819D02*
X163023810Y-69704819D01*
X163023810Y-69704819D02*
X163404762Y-69704819D01*
X163404762Y-69704819D02*
X163500000Y-69752438D01*
X163500000Y-69752438D02*
X163547619Y-69800057D01*
X163547619Y-69800057D02*
X163595238Y-69895295D01*
X163595238Y-69895295D02*
X163595238Y-70038152D01*
X163595238Y-70038152D02*
X163547619Y-70133390D01*
X163547619Y-70133390D02*
X163500000Y-70181009D01*
X163500000Y-70181009D02*
X163404762Y-70228628D01*
X163404762Y-70228628D02*
X163023810Y-70228628D01*
X164023810Y-70181009D02*
X164357143Y-70181009D01*
X164500000Y-70704819D02*
X164023810Y-70704819D01*
X164023810Y-70704819D02*
X164023810Y-69704819D01*
X164023810Y-69704819D02*
X164500000Y-69704819D01*
X164928572Y-70704819D02*
X164928572Y-69704819D01*
X164928572Y-69704819D02*
X165166667Y-69704819D01*
X165166667Y-69704819D02*
X165309524Y-69752438D01*
X165309524Y-69752438D02*
X165404762Y-69847676D01*
X165404762Y-69847676D02*
X165452381Y-69942914D01*
X165452381Y-69942914D02*
X165500000Y-70133390D01*
X165500000Y-70133390D02*
X165500000Y-70276247D01*
X165500000Y-70276247D02*
X165452381Y-70466723D01*
X165452381Y-70466723D02*
X165404762Y-70561961D01*
X165404762Y-70561961D02*
X165309524Y-70657200D01*
X165309524Y-70657200D02*
X165166667Y-70704819D01*
X165166667Y-70704819D02*
X164928572Y-70704819D01*
%TO.C,J2*%
D13*
X147210000Y-93870000D02*
X148590000Y-93870000D01*
X147210000Y-95250000D02*
X147210000Y-93870000D01*
X147210000Y-96520000D02*
X147210000Y-96630000D01*
X147210000Y-96520000D02*
X149970000Y-96520000D01*
X147210000Y-96630000D02*
X149970000Y-96630000D01*
X149970000Y-96520000D02*
X149970000Y-96630000D01*
%TO.C,D1*%
X133060000Y-66074000D02*
X133060000Y-66230000D01*
X133060000Y-68390000D02*
X133060000Y-68546000D01*
X133060000Y-66074484D02*
G75*
G02*
X136291437Y-66230000I1560000J-1235516D01*
G01*
X133579039Y-66230000D02*
G75*
G02*
X135660961Y-66230000I1040961J-1080000D01*
G01*
X135660961Y-68390000D02*
G75*
G02*
X133579039Y-68390000I-1040961J1080000D01*
G01*
X136291437Y-68390000D02*
G75*
G02*
X133060000Y-68545516I-1671437J1080000D01*
G01*
%TO.C,R2*%
X163830000Y-73430000D02*
X163830000Y-74200000D01*
X163830000Y-81510000D02*
X163830000Y-80740000D01*
X162460000Y-74200000D02*
X165200000Y-74200000D01*
X165200000Y-80740000D01*
X162460000Y-80740000D01*
X162460000Y-74200000D01*
%TO.C,R1*%
X133350000Y-73430000D02*
X133350000Y-74200000D01*
X133350000Y-81510000D02*
X133350000Y-80740000D01*
X131980000Y-74200000D02*
X134720000Y-74200000D01*
X134720000Y-80740000D01*
X131980000Y-80740000D01*
X131980000Y-74200000D01*
%TO.C,J3*%
X162450000Y-93870000D02*
X163830000Y-93870000D01*
X162450000Y-95250000D02*
X162450000Y-93870000D01*
X162450000Y-96520000D02*
X162450000Y-96630000D01*
X162450000Y-96520000D02*
X165210000Y-96520000D01*
X162450000Y-96630000D02*
X165210000Y-96630000D01*
X165210000Y-96520000D02*
X165210000Y-96630000D01*
%TO.C,J1*%
X131970000Y-93870000D02*
X133350000Y-93870000D01*
X131970000Y-95250000D02*
X131970000Y-93870000D01*
X131970000Y-96520000D02*
X131970000Y-96630000D01*
X131970000Y-96520000D02*
X134730000Y-96520000D01*
X131970000Y-96630000D02*
X134730000Y-96630000D01*
X134730000Y-96520000D02*
X134730000Y-96630000D01*
%TO.C,D2*%
X164120000Y-66230000D02*
X164120000Y-66074000D01*
X164120000Y-68546000D02*
X164120000Y-68390000D01*
X160888563Y-66230000D02*
G75*
G02*
X164120000Y-66074484I1671437J-1080000D01*
G01*
X161519039Y-66230000D02*
G75*
G02*
X163600961Y-66230000I1040961J-1080000D01*
G01*
X163600961Y-68390000D02*
G75*
G02*
X161519039Y-68390000I-1040961J1080000D01*
G01*
X164120000Y-68545516D02*
G75*
G02*
X160888563Y-68390000I-1560000J1235516D01*
G01*
%TO.C,BT1*%
X148590000Y-69282546D02*
X148590000Y-70282546D01*
X149090000Y-69782546D02*
X148090000Y-69782546D01*
X151690000Y-68782547D02*
G75*
G02*
X145490000Y-68782547I-3100000J-11499999D01*
G01*
%TD*%
M02*
